<svg width="45" height="46" viewBox="0 0 45 46" fill="none" xmlns="http://www.w3.org/2000/svg">
<path d="M2 2H5.57334C7.79126 2 9.53682 3.90988 9.352 6.10726L7.64748 26.5614C7.35997 29.9088 10.0091 32.7839 13.3771 32.7839H35.2483C38.2055 32.7839 40.7931 30.3606 41.019 27.4239L42.1279 12.0217C42.3744 8.61269 39.7868 5.84029 36.3572 5.84029H9.84489" stroke="white" stroke-width="4" stroke-miterlimit="10" stroke-linecap="round" stroke-linejoin="round"/>
<path d="M31.2642 43.0726C32.6821 43.0726 33.8313 41.9234 33.8313 40.5056C33.8313 39.0877 32.6821 37.9385 31.2642 37.9385C29.8464 37.9385 28.6972 39.0877 28.6972 40.5056C28.6972 41.9234 29.8464 43.0726 31.2642 43.0726Z" stroke="white" stroke-width="4" stroke-miterlimit="10" stroke-linecap="round" stroke-linejoin="round"/>
<path d="M14.8352 43.0726C16.2529 43.0726 17.4022 41.9234 17.4022 40.5056C17.4022 39.0877 16.2529 37.9385 14.8352 37.9385C13.4174 37.9385 12.2681 39.0877 12.2681 40.5056C12.2681 41.9234 13.4174 43.0726 14.8352 43.0726Z" stroke="white" stroke-width="4" stroke-miterlimit="10" stroke-linecap="round" stroke-linejoin="round"/>
<path d="M16.3754 14.3218H41.019" stroke="white" stroke-width="4" stroke-miterlimit="10" stroke-linecap="round" stroke-linejoin="round"/>
</svg>
