<svg width="105" height="120" viewBox="0 0 105 120" fill="none" xmlns="http://www.w3.org/2000/svg">
<path fill-rule="evenodd" clip-rule="evenodd" d="M0 32.0667C0 14.3567 15.2223 0 34 0C52.7777 0 68 14.3567 68 32.0667V74H49.6923H31.3846H0V54.2667V43.1667V32.0667ZM5.23077 54.2667V69.0667H26.1538V54.2667C26.1538 48.8174 21.4701 44.4 15.6923 44.4C9.91453 44.4 5.23077 48.8174 5.23077 54.2667ZM31.3846 69.0667V54.2667C31.3846 46.0929 24.359 39.4667 15.6923 39.4667C11.6732 39.4667 8.00703 40.8917 5.23077 43.2352V43.1667C5.23077 32.9494 14.0129 24.6667 24.8462 24.6667C35.6794 24.6667 44.4615 32.9494 44.4615 43.1667V69.0667H31.3846ZM62.7692 69.0667H49.6923V43.1667C49.6923 30.2248 38.5683 19.7333 24.8462 19.7333C17.0168 19.7333 10.0332 23.1488 5.47903 28.4861C7.33707 15.1931 19.3981 4.93333 34 4.93333C49.8888 4.93333 62.7692 17.0814 62.7692 32.0667V69.0667Z" fill="white"/>
</svg>
