<svg width="20" height="20" viewBox="0 0 20 20" fill="none" xmlns="http://www.w3.org/2000/svg">
<g clip-path="url(#clip0_83_320)">
<path d="M17.9942 6.00234C17.8992 5.65018 17.7138 5.32901 17.4561 5.07082C17.1985 4.81262 16.8778 4.62639 16.5258 4.53068C15.2208 4.17234 10 4.16651 10 4.16651C10 4.16651 4.78 4.16068 3.47417 4.50318C3.12244 4.6033 2.80235 4.79216 2.54464 5.05162C2.28692 5.31109 2.10024 5.63244 2.0025 5.98484C1.65833 7.28984 1.655 9.99651 1.655 9.99651C1.655 9.99651 1.65167 12.7165 1.99333 14.0082C2.185 14.7223 2.7475 15.2865 3.4625 15.479C4.78083 15.8373 9.9875 15.8432 9.9875 15.8432C9.9875 15.8432 15.2083 15.849 16.5133 15.5073C16.8654 15.4118 17.1865 15.226 17.4447 14.9683C17.703 14.7107 17.8895 14.39 17.9858 14.0382C18.3308 12.734 18.3333 10.0282 18.3333 10.0282C18.3333 10.0282 18.35 7.30734 17.9942 6.00234ZM8.33 12.504L8.33417 7.50401L12.6733 10.0082L8.33 12.504Z" fill="white" fill-opacity="0.65"/>
</g>
<defs>
<clipPath id="clip0_83_320">
<rect width="20" height="20" fill="white"/>
</clipPath>
</defs>
</svg>
